<svg width="24" height="26" viewBox="0 0 24 26" fill="none" xmlns="http://www.w3.org/2000/svg">
<path fill-rule="evenodd" clip-rule="evenodd" d="M17.7305 22.885H2.71659C1.21719 22.885 0 21.7352 0 20.2118V2.67762C0 1.23301 1.2193 0.003239 2.72185 0.003239L20.3766 0C21.8801 0 23.0931 1.22761 23.1648 2.67223V25.9125C23.1648 25.9125 17.1198 20.5994 17.0134 20.5044L17.7305 22.885ZM9.49972 6.14368C9.49972 6.14368 7.71077 6.07457 5.78072 7.51488C5.78072 7.51488 3.85067 10.9095 3.85067 15.0944C3.85067 15.0944 4.92046 16.973 7.85397 17.0443C7.85397 17.0443 8.28252 16.4689 8.71528 15.9625C7.06742 15.4572 6.42617 14.4465 6.42617 14.4465C6.42617 14.4465 6.56938 14.5178 6.78418 14.6626H6.84736C6.87813 14.6626 6.89299 14.6769 6.9087 14.6921C6.90966 14.693 6.91062 14.6939 6.91158 14.6948V14.7014C6.92844 14.7187 6.94317 14.7338 6.97582 14.7338C10.479 16.1913 13.4072 16.5283 16.7483 14.371C16.7483 14.371 16.1059 15.3816 14.3896 15.8868C14.7434 16.39 15.2404 16.9666 15.2404 16.9666C17.6448 16.9135 18.8447 15.6427 19.2351 15.2293C19.3212 15.138 19.3679 15.0886 19.3795 15.1031C19.3795 10.9246 17.4379 7.52353 17.4379 7.52353C15.7027 6.22249 14.0811 6.16419 13.7747 6.1631L13.5789 6.36069C15.7953 7.00851 16.8682 8.02018 16.8682 8.02018C11.4842 5.30303 6.97676 7.56667 6.2978 7.90765C6.24805 7.93264 6.21885 7.9473 6.21137 7.94893C6.21137 7.94893 7.28222 6.86706 9.64398 6.28943L9.49972 6.14368Z" fill="#CFCF47"/>
<path d="M14.46 14.2108C15.1442 14.2108 15.7013 13.6482 15.7013 12.9544C15.7013 12.2652 15.147 11.7026 14.46 11.7026V11.7054C13.7788 11.7054 13.2207 12.2661 13.2188 12.9601C13.2188 13.6482 13.776 14.2108 14.46 14.2108Z" fill="#CFCF47"/>
<path d="M9.91219 12.9544C9.91219 12.2652 9.35896 11.7026 8.67481 11.7026C7.98682 11.7054 7.42969 12.2661 7.42969 12.9601C7.42969 13.6482 7.98682 14.2108 8.67096 14.2108C9.35511 14.2108 9.91219 13.6482 9.91219 12.9544Z" fill="#CFCF47"/>
</svg>
