<svg width="48" height="48" viewBox="0 0 48 48" fill="none" xmlns="http://www.w3.org/2000/svg">
<rect width="48" height="48" fill="#19191F"/>
<path fill-rule="evenodd" clip-rule="evenodd" d="M39 24.1461C39 26.4922 38.4503 28.7127 37.47 30.6894C37.4661 30.6971 37.4622 30.7048 37.4582 30.7124C37.4348 30.7578 37.4123 30.8015 37.4123 30.8342C37.4027 30.8532 37.3921 30.8732 37.3815 30.8932C37.371 30.9132 37.3604 30.9332 37.3508 30.9522C36.159 33.2336 34.4483 35.0885 32.4301 36.4368C32.4243 36.4406 32.4176 36.4453 32.4108 36.4501C32.4041 36.4548 32.3974 36.4596 32.3916 36.4634C32.3717 36.4766 32.3521 36.4897 32.3327 36.5028C32.2845 36.5351 32.2372 36.5669 32.1879 36.5967C32.1321 36.631 32.0773 36.6653 32.0225 36.6996C31.9678 36.7338 31.913 36.7681 31.8573 36.8024C31.8573 36.8062 31.8534 36.8062 31.8496 36.81C29.5699 38.2002 26.8866 39 24.0187 39C23.7419 39 23.4651 38.9924 23.1883 38.9771C23.171 38.9752 23.1528 38.9743 23.1345 38.9733C23.1162 38.9724 23.098 38.9714 23.0807 38.9695C22.9884 38.9657 22.8923 38.9581 22.8 38.9505C22.7765 38.9487 22.7521 38.9461 22.7273 38.9434C22.6994 38.9403 22.6709 38.9373 22.6424 38.9353C22.5617 38.9276 22.4848 38.92 22.4079 38.9124C22.3526 38.909 22.3004 38.9025 22.2457 38.8956L22.2272 38.8934C22.1907 38.8895 22.1551 38.8848 22.1196 38.88C22.084 38.8753 22.0485 38.8705 22.012 38.8667C21.9812 38.8629 21.9505 38.8581 21.9197 38.8534C21.8889 38.8486 21.8582 38.8438 21.8274 38.84C21.7929 38.8343 21.7574 38.8286 21.7219 38.8229C21.6863 38.8172 21.6506 38.8115 21.616 38.8058C21.5852 38.8 21.5545 38.7953 21.5238 38.7905C21.493 38.7858 21.4622 38.781 21.4315 38.7753C21.3969 38.7684 21.363 38.7623 21.3296 38.7563C21.2888 38.749 21.2487 38.7418 21.2085 38.7334C21.1591 38.7269 21.1125 38.7176 21.064 38.7078C21.0558 38.7062 21.0476 38.7046 21.0393 38.7029C20.9548 38.6877 20.8664 38.6686 20.7818 38.6496C20.7356 38.642 20.6934 38.6344 20.6511 38.6229C20.5204 38.5925 20.3897 38.562 20.2628 38.5277C20.2498 38.5256 20.238 38.5222 20.2268 38.519C20.2181 38.5165 20.2097 38.5142 20.2013 38.5125C20.0898 38.482 19.9783 38.4515 19.8707 38.4211C19.8284 38.4097 19.7899 38.3982 19.7515 38.3868C19.7073 38.3735 19.6621 38.3601 19.6169 38.3468C19.5718 38.3335 19.5266 38.3201 19.4824 38.3068C19.4456 38.2977 19.4112 38.2862 19.3754 38.2741C19.3663 38.2711 19.3572 38.268 19.3478 38.2649L19.3477 38.2649C19.2632 38.2382 19.1787 38.2116 19.0941 38.1811C19.0711 38.1735 19.048 38.1649 19.0249 38.1564C19.0018 38.1478 18.9788 38.1392 18.9557 38.1316C18.9154 38.1164 18.874 38.1012 18.8327 38.0859C18.7914 38.0707 18.7501 38.0554 18.7097 38.0402C18.6903 38.0328 18.6715 38.026 18.653 38.0193C18.6239 38.0088 18.5957 37.9985 18.5675 37.9869L18.5673 37.9868C18.4866 37.9564 18.4059 37.9259 18.3253 37.8917C18.3022 37.8822 18.2782 37.8726 18.2542 37.8631C18.2301 37.8536 18.2061 37.8441 18.183 37.8345C18.1465 37.8193 18.1109 37.8031 18.0754 37.7869C18.0398 37.7707 18.0043 37.7546 17.9677 37.7393C17.8293 37.6822 17.6909 37.6174 17.5526 37.5527C17.5449 37.5489 17.5362 37.5451 17.5276 37.5413C17.5189 37.5375 17.5103 37.5337 17.5026 37.5298C17.468 37.5146 17.4372 37.4994 17.4065 37.4841C17.368 37.4689 17.3335 37.4499 17.2989 37.4308L17.2988 37.4308C17.1527 37.3585 17.0028 37.2823 16.8567 37.2023C16.7569 37.149 16.657 37.092 16.5572 37.0349L16.5569 37.0347C16.5461 37.0267 16.5353 37.0206 16.5232 37.0137C16.518 37.0107 16.5126 37.0077 16.5069 37.0042C13.9004 35.5189 11.8399 33.3289 10.5328 30.6704C10.5194 30.6437 10.5059 30.6161 10.4925 30.5885C10.479 30.5609 10.4656 30.5333 10.4521 30.5066C10.4098 30.419 10.3675 30.3276 10.3252 30.2362C10.2407 30.0572 10.1638 29.8782 10.0907 29.6954C10.0869 29.6839 10.0821 29.6725 10.0773 29.6611C10.0725 29.6497 10.0677 29.6382 10.0638 29.6268C9.79472 28.9603 9.57175 28.2633 9.4026 27.5511C9.40068 27.5473 9.39971 27.5425 9.39875 27.5377C9.39779 27.533 9.39683 27.5282 9.39491 27.5244C9.34878 27.3264 9.30649 27.1283 9.26805 26.9264C9.26036 26.8864 9.25363 26.8465 9.2469 26.8065C9.24017 26.7665 9.23345 26.7265 9.22576 26.6865C9.20269 26.5608 9.18347 26.4351 9.16425 26.3094C8.88746 24.4698 8.9605 22.6112 9.38338 20.8059C9.38722 20.7868 9.39203 20.7668 9.39683 20.7468C9.40164 20.7268 9.40644 20.7068 9.41029 20.6878L9.41029 20.6878C9.45258 20.5126 9.49486 20.3374 9.54484 20.166C9.58328 20.0213 9.62557 19.8765 9.6717 19.7318C9.69092 19.6633 9.71399 19.5947 9.73705 19.5261C9.79472 19.3471 9.85623 19.1719 9.92158 19.0005C9.92927 18.9796 9.93792 18.9587 9.94657 18.9377C9.95522 18.9168 9.96387 18.8958 9.97156 18.8749C10.0408 18.6844 10.1176 18.4978 10.1984 18.3112C10.2061 18.2921 10.2147 18.2731 10.2234 18.254C10.232 18.235 10.2407 18.216 10.2483 18.1969C10.3291 18.0141 10.4098 17.8351 10.4982 17.6561C10.504 17.6447 10.5088 17.6342 10.5136 17.6237C10.5184 17.6132 10.5232 17.6028 10.529 17.5913C10.5444 17.5532 10.5636 17.519 10.5828 17.4847L10.5828 17.4847C10.6558 17.3361 10.7327 17.1914 10.8135 17.0467C10.8423 16.9972 10.8702 16.9477 10.898 16.8981C10.9259 16.8486 10.9538 16.7991 10.9826 16.7496C10.9881 16.7359 10.9957 16.7242 11.0038 16.7115C11.0069 16.7066 11.0101 16.7016 11.0134 16.6963C12.5127 14.1178 14.7231 12.0763 17.4026 10.7814C17.4603 10.7509 17.518 10.7243 17.5756 10.6976C17.6198 10.6786 17.664 10.6576 17.7082 10.6367C17.7525 10.6157 17.7967 10.5948 17.8409 10.5757C18.0216 10.4919 18.2061 10.4158 18.3945 10.3396C18.406 10.3358 18.4166 10.331 18.4271 10.3262C18.4377 10.3215 18.4483 10.3167 18.4598 10.3129C19.1364 10.0463 19.8399 9.8254 20.5627 9.65782C20.5642 9.65782 20.5665 9.65717 20.5691 9.6564C20.5729 9.65532 20.5774 9.65401 20.5819 9.65401C20.7818 9.60831 20.9855 9.56641 21.1893 9.52833C21.2288 9.52009 21.2694 9.51297 21.3105 9.50575C21.3455 9.49962 21.3808 9.49343 21.4161 9.48643C21.4814 9.47691 21.5478 9.46643 21.6141 9.45596C21.6804 9.44549 21.7467 9.43501 21.8121 9.42549C24.7952 8.98368 27.8399 9.44073 30.604 10.7852L28.2974 15.4547C26.9365 14.7919 25.4757 14.4644 24.0033 14.4682C23.5112 14.4682 23.0307 14.5063 22.5579 14.5748C22.54 14.5784 22.5222 14.5811 22.5047 14.5838C22.4845 14.5868 22.4649 14.5898 22.4464 14.5939C22.3387 14.6091 22.2272 14.6282 22.1196 14.651C22.085 14.6586 22.0494 14.6663 22.0139 14.6739C21.9783 14.6815 21.9428 14.6891 21.9082 14.6967C21.8697 14.7062 21.8322 14.7148 21.7948 14.7234C21.7573 14.732 21.7198 14.7405 21.6813 14.75C21.666 14.7538 21.6506 14.7576 21.6351 14.7614C21.5573 14.7806 21.4777 14.8002 21.4007 14.8224C21.3738 14.83 21.3459 14.8376 21.3181 14.8453C21.2902 14.8529 21.2623 14.8605 21.2354 14.8681C21.1316 14.8986 21.0278 14.9291 20.9279 14.9633C20.901 14.9729 20.875 14.9814 20.8491 14.99C20.8231 14.9986 20.7972 15.0071 20.7702 15.0167C20.6818 15.0471 20.5896 15.0814 20.5011 15.1157C20.4861 15.1215 20.4709 15.1273 20.4556 15.1331C20.4004 15.1541 20.3439 15.1756 20.2897 15.1995C20.2427 15.2169 20.1979 15.2367 20.1519 15.2569C20.1377 15.2631 20.1235 15.2694 20.109 15.2756C20.0052 15.3175 19.9014 15.3632 19.8015 15.4128C19.7919 15.4166 19.7823 15.4213 19.7726 15.4261C19.763 15.4308 19.7534 15.4356 19.7438 15.4394C17.9101 16.323 16.3954 17.7589 15.4228 19.53C15.4209 19.5319 15.4199 19.5347 15.419 19.5376C15.418 19.5404 15.417 19.5433 15.4151 19.5452C15.3459 19.6747 15.2806 19.8042 15.2152 19.9336L15.2152 19.9337C15.2037 19.9565 15.1931 19.9803 15.1825 20.0041C15.172 20.0279 15.1614 20.0517 15.1499 20.0746C15.1037 20.1698 15.0614 20.265 15.0191 20.3603C15.0076 20.3869 14.997 20.4136 14.9865 20.4402C14.9759 20.4669 14.9653 20.4936 14.9538 20.5202C14.941 20.552 14.9277 20.5837 14.9145 20.6154C14.888 20.6789 14.8615 20.7424 14.8385 20.8059C14.8327 20.823 14.8269 20.8392 14.8212 20.8554C14.8154 20.8716 14.8096 20.8878 14.8039 20.9049C14.4387 21.9142 14.2387 23.0035 14.2387 24.1385C14.2387 24.626 14.2772 25.1059 14.3464 25.5744C14.3483 25.5896 14.3512 25.6058 14.3541 25.622C14.357 25.6381 14.3598 25.6543 14.3618 25.6696L14.3618 25.6696C14.381 25.7839 14.4002 25.8981 14.4233 26.0085C14.4348 26.0733 14.4502 26.1419 14.4656 26.2066C14.4784 26.2736 14.494 26.3379 14.51 26.4041C14.5131 26.4169 14.5163 26.4298 14.5194 26.4427C14.5329 26.5043 14.5502 26.5678 14.5673 26.6306C14.5746 26.657 14.5817 26.6834 14.5886 26.7093C14.5973 26.7437 14.6072 26.7769 14.6169 26.8096C14.6244 26.8348 14.6319 26.8597 14.6386 26.8845C14.6557 26.9476 14.676 27.0091 14.6964 27.0711C14.708 27.1064 14.7197 27.1419 14.7308 27.1778L14.7308 27.1779C14.7501 27.235 14.7693 27.2921 14.7885 27.3454C14.8192 27.433 14.85 27.5168 14.8846 27.6044C14.9 27.6406 14.9144 27.6767 14.9288 27.7129C14.9432 27.7491 14.9576 27.7853 14.973 27.8215C14.9845 27.85 14.997 27.8786 15.0095 27.9072C15.022 27.9357 15.0345 27.9643 15.0461 27.9929C15.0922 28.0995 15.1383 28.2024 15.1883 28.3052C15.1998 28.3204 15.2075 28.3357 15.2152 28.3547C16.1071 30.1753 17.5602 31.6759 19.3517 32.6395C19.4824 32.7118 19.6169 32.7804 19.7515 32.8452C19.7899 32.8655 19.8284 32.8824 19.8668 32.8993C19.8861 32.9078 19.9053 32.9162 19.9245 32.9251C20.0129 32.967 20.0975 33.0051 20.1859 33.0432C20.255 33.073 20.3265 33.1004 20.3966 33.1273C20.4162 33.1349 20.4357 33.1424 20.455 33.1498L20.4552 33.1499C20.5128 33.1727 20.5704 33.1956 20.6319 33.2184C20.7549 33.2641 20.8779 33.306 21.0009 33.3441C21.0278 33.3555 21.0586 33.3669 21.0893 33.3746C21.2354 33.4203 21.3815 33.4622 21.5314 33.5002C21.5353 33.5022 21.5391 33.5031 21.543 33.5041C21.5468 33.505 21.5506 33.506 21.5545 33.5079C21.6813 33.5383 21.8121 33.5688 21.9389 33.5955C21.9645 33.5986 21.9874 33.6044 22.012 33.6107C22.017 33.6119 22.0221 33.6132 22.0273 33.6145C22.0658 33.6221 22.1052 33.6288 22.1446 33.6355C22.184 33.6421 22.2234 33.6488 22.2618 33.6564C22.3022 33.6621 22.3426 33.6697 22.3829 33.6774C22.4233 33.685 22.4637 33.6926 22.504 33.6983C22.5732 33.7097 22.6424 33.7173 22.7115 33.7249L22.7116 33.725C22.7437 33.7289 22.7753 33.7334 22.8068 33.7378C22.8659 33.7461 22.9244 33.7543 22.9846 33.7592C23.0263 33.7632 23.069 33.7661 23.1122 33.769C23.1527 33.7718 23.1936 33.7746 23.2345 33.7783C23.3075 33.7859 23.3844 33.7935 23.4613 33.7973C23.5307 33.8024 23.6019 33.8041 23.6737 33.8058C23.7091 33.8066 23.7447 33.8075 23.7803 33.8088C23.8053 33.8088 23.8313 33.8097 23.8572 33.8107C23.8832 33.8116 23.9091 33.8126 23.9341 33.8126C24.0725 33.8126 24.2109 33.8088 24.3493 33.8049H24.3954C25.8063 33.744 27.1864 33.3822 28.4358 32.7499C28.4388 32.7485 28.4411 32.7476 28.4432 32.7468C28.4464 32.7456 28.4488 32.7447 28.4512 32.7423C28.5704 32.6852 28.6857 32.6204 28.801 32.5557L28.9164 32.4871C28.9971 32.4414 29.0778 32.3957 29.1547 32.3462C29.1912 32.3234 29.2277 32.2996 29.2643 32.2758C29.3008 32.2519 29.3373 32.2281 29.3738 32.2053C29.395 32.192 29.4161 32.1777 29.4373 32.1634C29.4584 32.1491 29.4795 32.1348 29.5007 32.1215C29.6045 32.0491 29.7083 31.9768 29.8121 31.9006C29.8159 31.8968 29.8207 31.8939 29.8255 31.8911C29.8303 31.8882 29.8351 31.8854 29.839 31.8816C30.9577 31.0513 31.8919 29.9848 32.5646 28.7622C32.5704 28.7508 32.5771 28.7384 32.5838 28.726C32.5906 28.7137 32.5973 28.7013 32.6031 28.6899C33.3373 27.334 33.7525 25.7876 33.7525 24.1461H39ZM33.7371 18.9547H28.3781V24.264H33.7371V18.9547Z" fill="#A17A25"/>
<mask id="mask0_21_1449" style="mask-type:alpha" maskUnits="userSpaceOnUse" x="9" y="9" width="30" height="30">
<path fill-rule="evenodd" clip-rule="evenodd" d="M39 24.1461C39 26.4922 38.4503 28.7127 37.47 30.6894C37.4661 30.6971 37.4622 30.7048 37.4582 30.7124C37.4348 30.7578 37.4123 30.8015 37.4123 30.8342C37.4027 30.8532 37.3921 30.8732 37.3815 30.8932C37.371 30.9132 37.3604 30.9332 37.3508 30.9522C36.159 33.2336 34.4483 35.0885 32.4301 36.4368C32.4243 36.4406 32.4176 36.4453 32.4108 36.4501C32.4041 36.4548 32.3974 36.4596 32.3916 36.4634C32.3717 36.4766 32.3521 36.4897 32.3327 36.5028C32.2845 36.5351 32.2372 36.5669 32.1879 36.5967C32.1321 36.631 32.0773 36.6653 32.0225 36.6996C31.9678 36.7338 31.913 36.7681 31.8573 36.8024C31.8573 36.8062 31.8534 36.8062 31.8496 36.81C29.5699 38.2002 26.8866 39 24.0187 39C23.7419 39 23.4651 38.9924 23.1883 38.9771C23.171 38.9752 23.1528 38.9743 23.1345 38.9733C23.1162 38.9724 23.098 38.9714 23.0807 38.9695C22.9884 38.9657 22.8923 38.9581 22.8 38.9505C22.7765 38.9487 22.7521 38.9461 22.7273 38.9434C22.6994 38.9403 22.6709 38.9373 22.6424 38.9353C22.5617 38.9276 22.4848 38.92 22.4079 38.9124C22.3526 38.909 22.3004 38.9025 22.2457 38.8956L22.2272 38.8934C22.1907 38.8895 22.1551 38.8848 22.1196 38.88C22.084 38.8753 22.0485 38.8705 22.012 38.8667C21.9812 38.8629 21.9505 38.8581 21.9197 38.8534C21.8889 38.8486 21.8582 38.8438 21.8274 38.84C21.7929 38.8343 21.7574 38.8286 21.7219 38.8229C21.6863 38.8172 21.6506 38.8115 21.616 38.8058C21.5852 38.8 21.5545 38.7953 21.5238 38.7905C21.493 38.7858 21.4622 38.781 21.4315 38.7753C21.3969 38.7684 21.363 38.7623 21.3296 38.7563C21.2888 38.749 21.2487 38.7418 21.2085 38.7334C21.1591 38.7269 21.1125 38.7176 21.064 38.7078C21.0558 38.7062 21.0476 38.7046 21.0393 38.7029C20.9548 38.6877 20.8664 38.6686 20.7818 38.6496C20.7356 38.642 20.6934 38.6344 20.6511 38.6229C20.5204 38.5925 20.3897 38.562 20.2628 38.5277C20.2498 38.5256 20.238 38.5222 20.2268 38.519C20.2181 38.5165 20.2097 38.5142 20.2013 38.5125C20.0898 38.482 19.9783 38.4515 19.8707 38.4211C19.8284 38.4097 19.7899 38.3982 19.7515 38.3868C19.7073 38.3735 19.6621 38.3601 19.6169 38.3468C19.5718 38.3335 19.5266 38.3201 19.4824 38.3068C19.4456 38.2977 19.4112 38.2862 19.3754 38.2741C19.3663 38.2711 19.3572 38.268 19.3478 38.2649L19.3477 38.2649C19.2632 38.2382 19.1787 38.2116 19.0941 38.1811C19.0711 38.1735 19.048 38.1649 19.0249 38.1564C19.0018 38.1478 18.9788 38.1392 18.9557 38.1316C18.9154 38.1164 18.874 38.1012 18.8327 38.0859C18.7914 38.0707 18.7501 38.0554 18.7097 38.0402C18.6903 38.0328 18.6715 38.026 18.653 38.0193C18.6239 38.0088 18.5957 37.9985 18.5675 37.9869L18.5673 37.9868C18.4866 37.9564 18.4059 37.9259 18.3253 37.8917C18.3022 37.8822 18.2782 37.8726 18.2542 37.8631C18.2301 37.8536 18.2061 37.8441 18.183 37.8345C18.1465 37.8193 18.1109 37.8031 18.0754 37.7869C18.0398 37.7707 18.0043 37.7546 17.9677 37.7393C17.8293 37.6822 17.6909 37.6174 17.5526 37.5527C17.5449 37.5489 17.5362 37.5451 17.5276 37.5413C17.5189 37.5375 17.5103 37.5337 17.5026 37.5298C17.468 37.5146 17.4372 37.4994 17.4065 37.4841C17.368 37.4689 17.3335 37.4499 17.2989 37.4308L17.2988 37.4308C17.1527 37.3585 17.0028 37.2823 16.8567 37.2023C16.7569 37.149 16.657 37.092 16.5572 37.0349L16.5569 37.0347C16.5461 37.0267 16.5353 37.0206 16.5232 37.0137C16.518 37.0107 16.5126 37.0077 16.5069 37.0042C13.9004 35.5189 11.8399 33.3289 10.5328 30.6704C10.5194 30.6437 10.5059 30.6161 10.4925 30.5885C10.479 30.5609 10.4656 30.5333 10.4521 30.5066C10.4098 30.419 10.3675 30.3276 10.3252 30.2362C10.2407 30.0572 10.1638 29.8782 10.0907 29.6954C10.0869 29.6839 10.0821 29.6725 10.0773 29.6611C10.0725 29.6497 10.0677 29.6382 10.0638 29.6268C9.79472 28.9603 9.57175 28.2633 9.4026 27.5511C9.40068 27.5473 9.39971 27.5425 9.39875 27.5377C9.39779 27.533 9.39683 27.5282 9.39491 27.5244C9.34878 27.3264 9.30649 27.1283 9.26805 26.9264C9.26036 26.8864 9.25363 26.8465 9.2469 26.8065C9.24017 26.7665 9.23345 26.7265 9.22576 26.6865C9.20269 26.5608 9.18347 26.4351 9.16425 26.3094C8.88746 24.4698 8.9605 22.6112 9.38338 20.8059C9.38722 20.7868 9.39203 20.7668 9.39683 20.7468C9.40164 20.7268 9.40644 20.7068 9.41029 20.6878L9.41029 20.6878C9.45258 20.5126 9.49486 20.3374 9.54484 20.166C9.58328 20.0213 9.62557 19.8765 9.6717 19.7318C9.69092 19.6633 9.71399 19.5947 9.73705 19.5261C9.79472 19.3471 9.85623 19.1719 9.92158 19.0005C9.92927 18.9796 9.93792 18.9587 9.94657 18.9377C9.95522 18.9168 9.96387 18.8958 9.97156 18.8749C10.0408 18.6844 10.1176 18.4978 10.1984 18.3112C10.2061 18.2921 10.2147 18.2731 10.2234 18.254C10.232 18.235 10.2407 18.216 10.2483 18.1969C10.3291 18.0141 10.4098 17.8351 10.4982 17.6561C10.504 17.6447 10.5088 17.6342 10.5136 17.6237C10.5184 17.6132 10.5232 17.6028 10.529 17.5913C10.5444 17.5532 10.5636 17.519 10.5828 17.4847L10.5828 17.4847C10.6558 17.3361 10.7327 17.1914 10.8135 17.0467C10.8423 16.9972 10.8702 16.9477 10.898 16.8981C10.9259 16.8486 10.9538 16.7991 10.9826 16.7496C10.9881 16.7359 10.9957 16.7242 11.0038 16.7115C11.0069 16.7066 11.0101 16.7016 11.0134 16.6963C12.5127 14.1178 14.7231 12.0763 17.4026 10.7814C17.4603 10.7509 17.518 10.7243 17.5756 10.6976C17.6198 10.6786 17.664 10.6576 17.7082 10.6367C17.7525 10.6157 17.7967 10.5948 17.8409 10.5757C18.0216 10.4919 18.2061 10.4158 18.3945 10.3396C18.406 10.3358 18.4166 10.331 18.4271 10.3262C18.4377 10.3215 18.4483 10.3167 18.4598 10.3129C19.1364 10.0463 19.8399 9.8254 20.5627 9.65782C20.5642 9.65782 20.5665 9.65717 20.5691 9.6564C20.5729 9.65532 20.5774 9.65401 20.5819 9.65401C20.7818 9.60831 20.9855 9.56641 21.1893 9.52833C21.2288 9.52009 21.2694 9.51297 21.3105 9.50575C21.3455 9.49962 21.3808 9.49343 21.4161 9.48643C21.4814 9.47691 21.5478 9.46643 21.6141 9.45596C21.6804 9.44549 21.7467 9.43501 21.8121 9.42549C24.7952 8.98368 27.8399 9.44073 30.604 10.7852L28.2974 15.4547C26.9365 14.7919 25.4757 14.4644 24.0033 14.4682C23.5112 14.4682 23.0307 14.5063 22.5579 14.5748C22.54 14.5784 22.5222 14.5811 22.5047 14.5838C22.4845 14.5868 22.4649 14.5898 22.4464 14.5939C22.3387 14.6091 22.2272 14.6282 22.1196 14.651C22.085 14.6586 22.0494 14.6663 22.0139 14.6739C21.9783 14.6815 21.9428 14.6891 21.9082 14.6967C21.8697 14.7062 21.8322 14.7148 21.7948 14.7234C21.7573 14.732 21.7198 14.7405 21.6813 14.75C21.666 14.7538 21.6506 14.7576 21.6351 14.7614C21.5573 14.7806 21.4777 14.8002 21.4007 14.8224C21.3738 14.83 21.3459 14.8376 21.3181 14.8453C21.2902 14.8529 21.2623 14.8605 21.2354 14.8681C21.1316 14.8986 21.0278 14.9291 20.9279 14.9633C20.901 14.9729 20.875 14.9814 20.8491 14.99C20.8231 14.9986 20.7972 15.0071 20.7702 15.0167C20.6818 15.0471 20.5896 15.0814 20.5011 15.1157C20.4861 15.1215 20.4709 15.1273 20.4556 15.1331C20.4004 15.1541 20.3439 15.1756 20.2897 15.1995C20.2427 15.2169 20.1979 15.2367 20.1519 15.2569C20.1377 15.2631 20.1235 15.2694 20.109 15.2756C20.0052 15.3175 19.9014 15.3632 19.8015 15.4128C19.7919 15.4166 19.7823 15.4213 19.7726 15.4261C19.763 15.4308 19.7534 15.4356 19.7438 15.4394C17.9101 16.323 16.3954 17.7589 15.4228 19.53C15.4209 19.5319 15.4199 19.5347 15.419 19.5376C15.418 19.5404 15.417 19.5433 15.4151 19.5452C15.3459 19.6747 15.2806 19.8042 15.2152 19.9336L15.2152 19.9337C15.2037 19.9565 15.1931 19.9803 15.1825 20.0041C15.172 20.0279 15.1614 20.0517 15.1499 20.0746C15.1037 20.1698 15.0614 20.265 15.0191 20.3603C15.0076 20.3869 14.997 20.4136 14.9865 20.4402C14.9759 20.4669 14.9653 20.4936 14.9538 20.5202C14.941 20.552 14.9277 20.5837 14.9145 20.6154C14.888 20.6789 14.8615 20.7424 14.8385 20.8059C14.8327 20.823 14.8269 20.8392 14.8212 20.8554C14.8154 20.8716 14.8096 20.8878 14.8039 20.9049C14.4387 21.9142 14.2387 23.0035 14.2387 24.1385C14.2387 24.626 14.2772 25.1059 14.3464 25.5744C14.3483 25.5896 14.3512 25.6058 14.3541 25.622C14.357 25.6381 14.3598 25.6543 14.3618 25.6696L14.3618 25.6696C14.381 25.7839 14.4002 25.8981 14.4233 26.0085C14.4348 26.0733 14.4502 26.1419 14.4656 26.2066C14.4784 26.2736 14.494 26.3379 14.51 26.4041C14.5131 26.4169 14.5163 26.4298 14.5194 26.4427C14.5329 26.5043 14.5502 26.5678 14.5673 26.6306C14.5746 26.657 14.5817 26.6834 14.5886 26.7093C14.5973 26.7437 14.6072 26.7769 14.6169 26.8096C14.6244 26.8348 14.6319 26.8597 14.6386 26.8845C14.6557 26.9476 14.676 27.0091 14.6964 27.0711C14.708 27.1064 14.7197 27.1419 14.7308 27.1778L14.7308 27.1779C14.7501 27.235 14.7693 27.2921 14.7885 27.3454C14.8192 27.433 14.85 27.5168 14.8846 27.6044C14.9 27.6406 14.9144 27.6767 14.9288 27.7129C14.9432 27.7491 14.9576 27.7853 14.973 27.8215C14.9845 27.85 14.997 27.8786 15.0095 27.9072C15.022 27.9357 15.0345 27.9643 15.0461 27.9929C15.0922 28.0995 15.1383 28.2024 15.1883 28.3052C15.1998 28.3204 15.2075 28.3357 15.2152 28.3547C16.1071 30.1753 17.5602 31.6759 19.3517 32.6395C19.4824 32.7118 19.6169 32.7804 19.7515 32.8452C19.7899 32.8655 19.8284 32.8824 19.8668 32.8993C19.8861 32.9078 19.9053 32.9162 19.9245 32.9251C20.0129 32.967 20.0975 33.0051 20.1859 33.0432C20.255 33.073 20.3265 33.1004 20.3966 33.1273C20.4162 33.1349 20.4357 33.1424 20.455 33.1498L20.4552 33.1499C20.5128 33.1727 20.5704 33.1956 20.6319 33.2184C20.7549 33.2641 20.8779 33.306 21.0009 33.3441C21.0278 33.3555 21.0586 33.3669 21.0893 33.3746C21.2354 33.4203 21.3815 33.4622 21.5314 33.5002C21.5353 33.5022 21.5391 33.5031 21.543 33.5041C21.5468 33.505 21.5506 33.506 21.5545 33.5079C21.6813 33.5383 21.8121 33.5688 21.9389 33.5955C21.9645 33.5986 21.9874 33.6044 22.012 33.6107C22.017 33.6119 22.0221 33.6132 22.0273 33.6145C22.0658 33.6221 22.1052 33.6288 22.1446 33.6355C22.184 33.6421 22.2234 33.6488 22.2618 33.6564C22.3022 33.6621 22.3426 33.6697 22.3829 33.6774C22.4233 33.685 22.4637 33.6926 22.504 33.6983C22.5732 33.7097 22.6424 33.7173 22.7115 33.7249L22.7116 33.725C22.7437 33.7289 22.7753 33.7334 22.8068 33.7378C22.8659 33.7461 22.9244 33.7543 22.9846 33.7592C23.0263 33.7632 23.069 33.7661 23.1122 33.769C23.1527 33.7718 23.1936 33.7746 23.2345 33.7783C23.3075 33.7859 23.3844 33.7935 23.4613 33.7973C23.5307 33.8024 23.6019 33.8041 23.6737 33.8058C23.7091 33.8066 23.7447 33.8075 23.7803 33.8088C23.8053 33.8088 23.8313 33.8097 23.8572 33.8107C23.8832 33.8116 23.9091 33.8126 23.9341 33.8126C24.0725 33.8126 24.2109 33.8088 24.3493 33.8049H24.3954C25.8063 33.744 27.1864 33.3822 28.4358 32.7499C28.4388 32.7485 28.4411 32.7476 28.4432 32.7468C28.4464 32.7456 28.4488 32.7447 28.4512 32.7423C28.5704 32.6852 28.6857 32.6204 28.801 32.5557L28.9164 32.4871C28.9971 32.4414 29.0778 32.3957 29.1547 32.3462C29.1912 32.3234 29.2277 32.2996 29.2643 32.2758C29.3008 32.2519 29.3373 32.2281 29.3738 32.2053C29.395 32.192 29.4161 32.1777 29.4373 32.1634C29.4584 32.1491 29.4795 32.1348 29.5007 32.1215C29.6045 32.0491 29.7083 31.9768 29.8121 31.9006C29.8159 31.8968 29.8207 31.8939 29.8255 31.8911C29.8303 31.8882 29.8351 31.8854 29.839 31.8816C30.9577 31.0513 31.8919 29.9848 32.5646 28.7622C32.5704 28.7508 32.5771 28.7384 32.5838 28.726C32.5906 28.7137 32.5973 28.7013 32.6031 28.6899C33.3373 27.334 33.7525 25.7876 33.7525 24.1461H39ZM33.7371 18.9547H28.3781V24.264H33.7371V18.9547Z" fill="white"/>
</mask>
<g mask="url(#mask0_21_1449)">
</g>
<path fill-rule="evenodd" clip-rule="evenodd" d="M39 23.8836C39 26.2298 38.4503 28.4503 37.47 30.427C37.4661 30.4346 37.4622 30.4423 37.4582 30.4499C37.4348 30.4953 37.4123 30.5391 37.4123 30.5717C37.4027 30.5908 37.3921 30.6107 37.3815 30.6307C37.371 30.6507 37.3604 30.6707 37.3508 30.6898C36.159 32.9712 34.4483 34.826 32.4301 36.1743C32.4243 36.1781 32.4176 36.1829 32.4108 36.1876C32.4041 36.1924 32.3974 36.1972 32.3916 36.201C32.3717 36.2141 32.3521 36.2273 32.3327 36.2403C32.2845 36.2727 32.2372 36.3044 32.1879 36.3343C32.1321 36.3686 32.0773 36.4028 32.0225 36.4371C31.9678 36.4714 31.913 36.5057 31.8573 36.5399C31.8573 36.5437 31.8534 36.5437 31.8496 36.5476C29.5699 37.9377 26.8866 38.7376 24.0187 38.7376C23.7419 38.7376 23.4651 38.7299 23.1883 38.7147C23.171 38.7128 23.1528 38.7118 23.1345 38.7109C23.1162 38.7099 23.098 38.709 23.0807 38.7071C22.9884 38.7033 22.8923 38.6957 22.8 38.688C22.7765 38.6862 22.7521 38.6836 22.7273 38.6809C22.6994 38.6779 22.6709 38.6748 22.6424 38.6728C22.5617 38.6652 22.4848 38.6576 22.4079 38.65C22.3526 38.6465 22.3004 38.64 22.2457 38.6332L22.2272 38.6309C22.1907 38.6271 22.1551 38.6223 22.1196 38.6176C22.084 38.6128 22.0485 38.6081 22.012 38.6042C21.9812 38.6004 21.9505 38.5957 21.9197 38.5909C21.8889 38.5862 21.8582 38.5814 21.8274 38.5776C21.7929 38.5719 21.7574 38.5662 21.7219 38.5605C21.6863 38.5548 21.6506 38.549 21.616 38.5433C21.5852 38.5376 21.5545 38.5328 21.5238 38.5281C21.493 38.5233 21.4622 38.5186 21.4315 38.5128C21.3969 38.506 21.363 38.4999 21.3296 38.4939C21.2888 38.4865 21.2487 38.4793 21.2085 38.4709C21.1591 38.4644 21.1125 38.4551 21.064 38.4454C21.0558 38.4438 21.0476 38.4421 21.0393 38.4405C20.9548 38.4252 20.8664 38.4062 20.7818 38.3872C20.7356 38.3795 20.6934 38.3719 20.6511 38.3605C20.5204 38.33 20.3897 38.2995 20.2628 38.2653C20.2498 38.2631 20.238 38.2598 20.2268 38.2566C20.2181 38.2541 20.2097 38.2517 20.2013 38.25C20.0898 38.2196 19.9783 38.1891 19.8707 38.1586C19.8284 38.1472 19.7899 38.1358 19.7515 38.1244C19.7073 38.111 19.6621 38.0977 19.6169 38.0844C19.5718 38.071 19.5266 38.0577 19.4824 38.0444C19.4456 38.0353 19.4112 38.0237 19.3754 38.0117C19.3663 38.0086 19.3572 38.0056 19.3478 38.0025L19.3477 38.0024C19.2632 37.9758 19.1787 37.9491 19.0941 37.9187C19.0711 37.9111 19.048 37.9025 19.0249 37.8939C19.0018 37.8854 18.9788 37.8768 18.9557 37.8692C18.9154 37.8539 18.874 37.8387 18.8327 37.8235C18.7914 37.8082 18.7501 37.793 18.7097 37.7778C18.6903 37.7704 18.6715 37.7636 18.653 37.7569C18.6239 37.7463 18.5957 37.7361 18.5675 37.7244L18.5673 37.7244C18.4866 37.6939 18.4059 37.6635 18.3253 37.6292C18.3022 37.6197 18.2782 37.6102 18.2542 37.6007C18.2301 37.5911 18.2061 37.5816 18.183 37.5721C18.1465 37.5569 18.1109 37.5407 18.0754 37.5245C18.0398 37.5083 18.0043 37.4921 17.9677 37.4769C17.8293 37.4197 17.6909 37.355 17.5526 37.2902C17.5449 37.2864 17.5362 37.2826 17.5276 37.2788C17.5189 37.275 17.5103 37.2712 17.5026 37.2674C17.468 37.2522 17.4372 37.2369 17.4065 37.2217C17.368 37.2065 17.3335 37.1874 17.2989 37.1684L17.2988 37.1684C17.1527 37.096 17.0028 37.0198 16.8567 36.9398C16.7569 36.8866 16.657 36.8295 16.5572 36.7724L16.5569 36.7723C16.5461 36.7642 16.5353 36.7581 16.5232 36.7512C16.518 36.7483 16.5126 36.7452 16.5069 36.7418C13.9004 35.2564 11.8399 33.0664 10.5328 30.4079C10.5194 30.3813 10.5059 30.3537 10.4925 30.326C10.479 30.2984 10.4656 30.2708 10.4521 30.2442C10.4098 30.1566 10.3675 30.0652 10.3252 29.9737C10.2407 29.7947 10.1638 29.6157 10.0907 29.4329C10.0869 29.4215 10.0821 29.4101 10.0773 29.3986C10.0725 29.3872 10.0677 29.3758 10.0638 29.3644C9.79472 28.6978 9.57175 28.0008 9.4026 27.2886C9.40068 27.2848 9.39971 27.28 9.39875 27.2753C9.39779 27.2705 9.39683 27.2658 9.39491 27.262C9.34878 27.0639 9.30649 26.8659 9.26805 26.664C9.26036 26.624 9.25363 26.584 9.2469 26.544C9.24017 26.504 9.23345 26.464 9.22576 26.424C9.20269 26.2984 9.18347 26.1727 9.16425 26.047C8.88746 24.2074 8.9605 22.3487 9.38338 20.5434C9.38722 20.5244 9.39203 20.5044 9.39683 20.4844C9.40164 20.4644 9.40644 20.4444 9.41029 20.4253L9.41029 20.4253C9.45258 20.2501 9.49486 20.0749 9.54484 19.9036C9.58328 19.7588 9.62557 19.6141 9.6717 19.4694C9.69092 19.4008 9.71399 19.3323 9.73705 19.2637C9.79472 19.0847 9.85623 18.9095 9.92158 18.7381C9.92927 18.7171 9.93792 18.6962 9.94657 18.6753C9.95522 18.6543 9.96387 18.6334 9.97156 18.6124C10.0408 18.422 10.1176 18.2353 10.1984 18.0487C10.2061 18.0297 10.2147 18.0106 10.2234 17.9916C10.232 17.9726 10.2407 17.9535 10.2483 17.9345C10.3291 17.7516 10.4098 17.5726 10.4982 17.3936C10.504 17.3822 10.5088 17.3717 10.5136 17.3613C10.5184 17.3508 10.5232 17.3403 10.529 17.3289C10.5444 17.2908 10.5636 17.2565 10.5828 17.2222L10.5828 17.2222C10.6558 17.0737 10.7327 16.929 10.8135 16.7842C10.8423 16.7347 10.8702 16.6852 10.898 16.6357C10.9259 16.5862 10.9538 16.5367 10.9826 16.4872C10.9881 16.4734 10.9957 16.4617 11.0038 16.4491C11.0069 16.4442 11.0101 16.4392 11.0134 16.4338C12.5127 13.8554 14.7231 11.8139 17.4026 10.5189C17.4603 10.4885 17.518 10.4618 17.5756 10.4351C17.6198 10.4161 17.664 10.3952 17.7082 10.3742C17.7525 10.3533 17.7967 10.3323 17.8409 10.3133C18.0216 10.2295 18.2061 10.1533 18.3945 10.0771C18.406 10.0733 18.4166 10.0686 18.4271 10.0638C18.4377 10.059 18.4483 10.0543 18.4598 10.0505C19.1364 9.78386 19.8399 9.56295 20.5627 9.39537C20.5642 9.39537 20.5665 9.39472 20.5691 9.39395C20.5729 9.39287 20.5774 9.39156 20.5819 9.39156C20.7818 9.34586 20.9855 9.30396 21.1893 9.26587C21.2288 9.25764 21.2694 9.25051 21.3105 9.2433C21.3455 9.23717 21.3808 9.23098 21.4161 9.22398C21.4814 9.21446 21.5478 9.20398 21.6141 9.19351C21.6804 9.18304 21.7467 9.17256 21.8121 9.16304C24.7952 8.72123 27.8399 9.17827 30.604 10.5227L28.2974 15.1922C26.9365 14.5295 25.4757 14.2019 24.0033 14.2058C23.5112 14.2058 23.0307 14.2438 22.5579 14.3124C22.54 14.3159 22.5222 14.3186 22.5047 14.3213C22.4845 14.3244 22.4649 14.3274 22.4464 14.3314C22.3387 14.3467 22.2272 14.3657 22.1196 14.3886C22.085 14.3962 22.0494 14.4038 22.0139 14.4114C21.9783 14.419 21.9428 14.4267 21.9082 14.4343C21.8697 14.4438 21.8322 14.4524 21.7948 14.4609C21.7573 14.4695 21.7198 14.4781 21.6813 14.4876C21.666 14.4914 21.6506 14.4952 21.6351 14.499C21.5573 14.5181 21.4777 14.5377 21.4007 14.56C21.3738 14.5676 21.3459 14.5752 21.3181 14.5828C21.2902 14.5904 21.2623 14.598 21.2354 14.6057L21.2354 14.6057C21.1316 14.6361 21.0278 14.6666 20.9279 14.7009C20.901 14.7104 20.875 14.719 20.8491 14.7275C20.8231 14.7361 20.7972 14.7447 20.7702 14.7542C20.6818 14.7847 20.5896 14.819 20.5011 14.8532C20.4861 14.859 20.4709 14.8648 20.4556 14.8707C20.4004 14.8917 20.3439 14.9132 20.2897 14.937C20.2427 14.9545 20.1979 14.9742 20.1519 14.9944C20.1377 15.0007 20.1235 15.0069 20.109 15.0132C20.0052 15.0551 19.9014 15.1008 19.8015 15.1503C19.7919 15.1541 19.7823 15.1589 19.7726 15.1636C19.763 15.1684 19.7534 15.1732 19.7438 15.177C17.9101 16.0606 16.3954 17.4965 15.4228 19.2675C15.4209 19.2694 15.4199 19.2723 15.419 19.2751C15.418 19.278 15.417 19.2808 15.4151 19.2827C15.3459 19.4122 15.2806 19.5417 15.2152 19.6712L15.2152 19.6712C15.2037 19.6941 15.1931 19.7179 15.1825 19.7417C15.172 19.7655 15.1614 19.7893 15.1499 19.8121C15.1037 19.9074 15.0614 20.0026 15.0191 20.0978C15.0076 20.1245 14.997 20.1511 14.9865 20.1778C14.9759 20.2044 14.9653 20.2311 14.9538 20.2578C14.941 20.2895 14.9277 20.3212 14.9145 20.353C14.888 20.4165 14.8615 20.4799 14.8385 20.5434C14.8327 20.5606 14.8269 20.5767 14.8212 20.5929C14.8154 20.6091 14.8096 20.6253 14.8039 20.6424C14.4387 21.6517 14.2387 22.741 14.2387 23.876C14.2387 24.3635 14.2772 24.8434 14.3464 25.3119C14.3483 25.3271 14.3512 25.3433 14.3541 25.3595C14.357 25.3757 14.3598 25.3919 14.3618 25.4071L14.3618 25.4072C14.381 25.5214 14.4002 25.6357 14.4233 25.7461C14.4348 25.8108 14.4502 25.8794 14.4656 25.9441C14.4784 26.0112 14.494 26.0755 14.51 26.1416C14.5131 26.1544 14.5163 26.1673 14.5194 26.1803C14.5329 26.2419 14.5502 26.3054 14.5673 26.3681C14.5746 26.3946 14.5817 26.4209 14.5886 26.4469C14.5973 26.4813 14.6072 26.5145 14.6169 26.5471C14.6244 26.5723 14.6319 26.5972 14.6386 26.6221C14.6557 26.6852 14.676 26.7467 14.6964 26.8086C14.708 26.844 14.7197 26.8794 14.7308 26.9154L14.7308 26.9154C14.7501 26.9725 14.7693 27.0296 14.7885 27.0829C14.8192 27.1705 14.85 27.2543 14.8846 27.3419C14.9 27.3781 14.9144 27.4143 14.9288 27.4505C14.9432 27.4867 14.9576 27.5228 14.973 27.559C14.9845 27.5876 14.997 27.6162 15.0095 27.6447C15.022 27.6733 15.0345 27.7019 15.0461 27.7304C15.0922 27.8371 15.1383 27.9399 15.1883 28.0427C15.1998 28.058 15.2075 28.0732 15.2152 28.0923C16.1071 29.9128 17.5602 31.4134 19.3517 32.377C19.4824 32.4494 19.6169 32.518 19.7515 32.5827C19.7899 32.603 19.8284 32.6199 19.8668 32.6369C19.8861 32.6453 19.9053 32.6538 19.9245 32.6627C20.0129 32.7046 20.0975 32.7427 20.1859 32.7808C20.255 32.8105 20.3265 32.838 20.3966 32.8649C20.4162 32.8724 20.4357 32.8799 20.455 32.8874C20.5127 32.9102 20.5703 32.9331 20.6319 32.956C20.7549 33.0017 20.8779 33.0436 21.0009 33.0816C21.0278 33.0931 21.0586 33.1045 21.0893 33.1121C21.2354 33.1578 21.3815 33.1997 21.5314 33.2378C21.5353 33.2397 21.5391 33.2407 21.543 33.2416C21.5468 33.2426 21.5506 33.2435 21.5545 33.2454C21.6813 33.2759 21.8121 33.3064 21.9389 33.333C21.9645 33.3362 21.9874 33.342 22.012 33.3482C22.017 33.3495 22.0221 33.3508 22.0273 33.3521C22.0658 33.3597 22.1052 33.3663 22.1446 33.373C22.184 33.3797 22.2234 33.3863 22.2618 33.394C22.3022 33.3997 22.3426 33.4073 22.3829 33.4149C22.4233 33.4225 22.4637 33.4301 22.504 33.4358C22.5732 33.4473 22.6424 33.4549 22.7115 33.4625L22.7116 33.4625C22.7437 33.4665 22.7753 33.4709 22.8068 33.4753C22.8659 33.4836 22.9244 33.4918 22.9846 33.4968C23.0263 33.5007 23.069 33.5036 23.1122 33.5066C23.1527 33.5094 23.1936 33.5121 23.2345 33.5158C23.3075 33.5234 23.3844 33.5311 23.4613 33.5349C23.5307 33.54 23.6019 33.5417 23.6737 33.5434C23.7091 33.5442 23.7447 33.545 23.7803 33.5463C23.8053 33.5463 23.8313 33.5473 23.8572 33.5482C23.8832 33.5492 23.9091 33.5501 23.9341 33.5501C24.0725 33.5501 24.2109 33.5463 24.3493 33.5425H24.3954C25.8063 33.4816 27.1864 33.1197 28.4358 32.4875C28.4388 32.486 28.4411 32.4851 28.4432 32.4844C28.4464 32.4831 28.4488 32.4822 28.4512 32.4799C28.5704 32.4227 28.6857 32.358 28.801 32.2932L28.9164 32.2247C28.9971 32.179 29.0778 32.1333 29.1547 32.0838C29.1912 32.0609 29.2277 32.0371 29.2643 32.0133C29.3008 31.9895 29.3373 31.9657 29.3738 31.9428C29.395 31.9295 29.4161 31.9152 29.4373 31.9009C29.4584 31.8867 29.4795 31.8724 29.5007 31.859C29.6045 31.7867 29.7083 31.7143 29.8121 31.6381C29.8159 31.6343 29.8207 31.6315 29.8255 31.6286C29.8303 31.6258 29.8351 31.6229 29.839 31.6191C30.9577 30.7888 31.8919 29.7224 32.5646 28.4998C32.5704 28.4884 32.5771 28.476 32.5838 28.4636C32.5906 28.4512 32.5973 28.4388 32.6031 28.4274C33.3373 27.0715 33.7525 25.5252 33.7525 23.8836H39ZM33.7371 18.6922H28.3781V24.0015H33.7371V18.6922Z" fill="url(#paint0_linear_21_1449)"/>
<mask id="mask1_21_1449" style="mask-type:alpha" maskUnits="userSpaceOnUse" x="9" y="9" width="30" height="30">
<path fill-rule="evenodd" clip-rule="evenodd" d="M39 23.8836C39 26.2298 38.4503 28.4503 37.47 30.427C37.4661 30.4346 37.4622 30.4423 37.4582 30.4499C37.4348 30.4953 37.4123 30.5391 37.4123 30.5717C37.4027 30.5908 37.3921 30.6107 37.3815 30.6307C37.371 30.6507 37.3604 30.6707 37.3508 30.6898C36.159 32.9712 34.4483 34.826 32.4301 36.1743C32.4243 36.1781 32.4176 36.1829 32.4108 36.1876C32.4041 36.1924 32.3974 36.1972 32.3916 36.201C32.3717 36.2141 32.3521 36.2273 32.3327 36.2403C32.2845 36.2727 32.2372 36.3044 32.1879 36.3343C32.1321 36.3686 32.0773 36.4028 32.0225 36.4371C31.9678 36.4714 31.913 36.5057 31.8573 36.5399C31.8573 36.5437 31.8534 36.5437 31.8496 36.5476C29.5699 37.9377 26.8866 38.7376 24.0187 38.7376C23.7419 38.7376 23.4651 38.7299 23.1883 38.7147C23.171 38.7128 23.1528 38.7118 23.1345 38.7109C23.1162 38.7099 23.098 38.709 23.0807 38.7071C22.9884 38.7033 22.8923 38.6957 22.8 38.688C22.7765 38.6862 22.7521 38.6836 22.7273 38.6809C22.6994 38.6779 22.6709 38.6748 22.6424 38.6728C22.5617 38.6652 22.4848 38.6576 22.4079 38.65C22.3526 38.6465 22.3004 38.64 22.2457 38.6332L22.2272 38.6309C22.1907 38.6271 22.1551 38.6223 22.1196 38.6176C22.084 38.6128 22.0485 38.6081 22.012 38.6042C21.9812 38.6004 21.9505 38.5957 21.9197 38.5909C21.8889 38.5862 21.8582 38.5814 21.8274 38.5776C21.7929 38.5719 21.7574 38.5662 21.7219 38.5605C21.6863 38.5548 21.6506 38.549 21.616 38.5433C21.5852 38.5376 21.5545 38.5328 21.5238 38.5281C21.493 38.5233 21.4622 38.5186 21.4315 38.5128C21.3969 38.506 21.363 38.4999 21.3296 38.4939C21.2888 38.4865 21.2487 38.4793 21.2085 38.4709C21.1591 38.4644 21.1125 38.4551 21.064 38.4454C21.0558 38.4438 21.0476 38.4421 21.0393 38.4405C20.9548 38.4252 20.8664 38.4062 20.7818 38.3872C20.7356 38.3795 20.6934 38.3719 20.6511 38.3605C20.5204 38.33 20.3897 38.2995 20.2628 38.2653C20.2498 38.2631 20.238 38.2598 20.2268 38.2566C20.2181 38.2541 20.2097 38.2517 20.2013 38.25C20.0898 38.2196 19.9783 38.1891 19.8707 38.1586C19.8284 38.1472 19.7899 38.1358 19.7515 38.1244C19.7073 38.111 19.6621 38.0977 19.6169 38.0844C19.5718 38.071 19.5266 38.0577 19.4824 38.0444C19.4456 38.0353 19.4112 38.0237 19.3754 38.0117C19.3663 38.0086 19.3572 38.0056 19.3478 38.0025L19.3477 38.0024C19.2632 37.9758 19.1787 37.9491 19.0941 37.9187C19.0711 37.9111 19.048 37.9025 19.0249 37.8939C19.0018 37.8854 18.9788 37.8768 18.9557 37.8692C18.9154 37.8539 18.874 37.8387 18.8327 37.8235C18.7914 37.8082 18.7501 37.793 18.7097 37.7778C18.6903 37.7704 18.6715 37.7636 18.653 37.7569C18.6239 37.7463 18.5957 37.7361 18.5675 37.7244L18.5673 37.7244C18.4866 37.6939 18.4059 37.6635 18.3253 37.6292C18.3022 37.6197 18.2782 37.6102 18.2542 37.6007C18.2301 37.5911 18.2061 37.5816 18.183 37.5721C18.1465 37.5569 18.1109 37.5407 18.0754 37.5245C18.0398 37.5083 18.0043 37.4921 17.9677 37.4769C17.8293 37.4197 17.6909 37.355 17.5526 37.2902C17.5449 37.2864 17.5362 37.2826 17.5276 37.2788C17.5189 37.275 17.5103 37.2712 17.5026 37.2674C17.468 37.2522 17.4372 37.2369 17.4065 37.2217C17.368 37.2065 17.3335 37.1874 17.2989 37.1684L17.2988 37.1684C17.1527 37.096 17.0028 37.0198 16.8567 36.9398C16.7569 36.8866 16.657 36.8295 16.5572 36.7724L16.5569 36.7723C16.5461 36.7642 16.5353 36.7581 16.5232 36.7512C16.518 36.7483 16.5126 36.7452 16.5069 36.7418C13.9004 35.2564 11.8399 33.0664 10.5328 30.4079C10.5194 30.3813 10.5059 30.3537 10.4925 30.326C10.479 30.2984 10.4656 30.2708 10.4521 30.2442C10.4098 30.1566 10.3675 30.0652 10.3252 29.9737C10.2407 29.7947 10.1638 29.6157 10.0907 29.4329C10.0869 29.4215 10.0821 29.4101 10.0773 29.3986C10.0725 29.3872 10.0677 29.3758 10.0638 29.3644C9.79472 28.6978 9.57175 28.0008 9.4026 27.2886C9.40068 27.2848 9.39971 27.28 9.39875 27.2753C9.39779 27.2705 9.39683 27.2658 9.39491 27.262C9.34878 27.0639 9.30649 26.8659 9.26805 26.664C9.26036 26.624 9.25363 26.584 9.2469 26.544C9.24017 26.504 9.23345 26.464 9.22576 26.424C9.20269 26.2984 9.18347 26.1727 9.16425 26.047C8.88746 24.2074 8.9605 22.3487 9.38338 20.5434C9.38722 20.5244 9.39203 20.5044 9.39683 20.4844C9.40164 20.4644 9.40644 20.4444 9.41029 20.4253L9.41029 20.4253C9.45258 20.2501 9.49486 20.0749 9.54484 19.9036C9.58328 19.7588 9.62557 19.6141 9.6717 19.4694C9.69092 19.4008 9.71399 19.3323 9.73705 19.2637C9.79472 19.0847 9.85623 18.9095 9.92158 18.7381C9.92927 18.7171 9.93792 18.6962 9.94657 18.6753C9.95522 18.6543 9.96387 18.6334 9.97156 18.6124C10.0408 18.422 10.1176 18.2353 10.1984 18.0487C10.2061 18.0297 10.2147 18.0106 10.2234 17.9916C10.232 17.9726 10.2407 17.9535 10.2483 17.9345C10.3291 17.7516 10.4098 17.5726 10.4982 17.3936C10.504 17.3822 10.5088 17.3717 10.5136 17.3613C10.5184 17.3508 10.5232 17.3403 10.529 17.3289C10.5444 17.2908 10.5636 17.2565 10.5828 17.2222L10.5828 17.2222C10.6558 17.0737 10.7327 16.929 10.8135 16.7842C10.8423 16.7347 10.8702 16.6852 10.898 16.6357C10.9259 16.5862 10.9538 16.5367 10.9826 16.4872C10.9881 16.4734 10.9957 16.4617 11.0038 16.4491C11.0069 16.4442 11.0101 16.4392 11.0134 16.4338C12.5127 13.8554 14.7231 11.8139 17.4026 10.5189C17.4603 10.4885 17.518 10.4618 17.5756 10.4351C17.6198 10.4161 17.664 10.3952 17.7082 10.3742C17.7525 10.3533 17.7967 10.3323 17.8409 10.3133C18.0216 10.2295 18.2061 10.1533 18.3945 10.0771C18.406 10.0733 18.4166 10.0686 18.4271 10.0638C18.4377 10.059 18.4483 10.0543 18.4598 10.0505C19.1364 9.78386 19.8399 9.56295 20.5627 9.39537C20.5642 9.39537 20.5665 9.39472 20.5691 9.39395C20.5729 9.39287 20.5774 9.39156 20.5819 9.39156C20.7818 9.34586 20.9855 9.30396 21.1893 9.26587C21.2288 9.25764 21.2694 9.25051 21.3105 9.2433C21.3455 9.23717 21.3808 9.23098 21.4161 9.22398C21.4814 9.21446 21.5478 9.20398 21.6141 9.19351C21.6804 9.18304 21.7467 9.17256 21.8121 9.16304C24.7952 8.72123 27.8399 9.17827 30.604 10.5227L28.2974 15.1922C26.9365 14.5295 25.4757 14.2019 24.0033 14.2058C23.5112 14.2058 23.0307 14.2438 22.5579 14.3124C22.54 14.3159 22.5222 14.3186 22.5047 14.3213C22.4845 14.3244 22.4649 14.3274 22.4464 14.3314C22.3387 14.3467 22.2272 14.3657 22.1196 14.3886C22.085 14.3962 22.0494 14.4038 22.0139 14.4114C21.9783 14.419 21.9428 14.4267 21.9082 14.4343C21.8697 14.4438 21.8322 14.4524 21.7948 14.4609C21.7573 14.4695 21.7198 14.4781 21.6813 14.4876C21.666 14.4914 21.6506 14.4952 21.6351 14.499C21.5573 14.5181 21.4777 14.5377 21.4007 14.56C21.3738 14.5676 21.3459 14.5752 21.3181 14.5828C21.2902 14.5904 21.2623 14.598 21.2354 14.6057L21.2354 14.6057C21.1316 14.6361 21.0278 14.6666 20.9279 14.7009C20.901 14.7104 20.875 14.719 20.8491 14.7275C20.8231 14.7361 20.7972 14.7447 20.7702 14.7542C20.6818 14.7847 20.5896 14.819 20.5011 14.8532C20.4861 14.859 20.4709 14.8648 20.4556 14.8707C20.4004 14.8917 20.3439 14.9132 20.2897 14.937C20.2427 14.9545 20.1979 14.9742 20.1519 14.9944C20.1377 15.0007 20.1235 15.0069 20.109 15.0132C20.0052 15.0551 19.9014 15.1008 19.8015 15.1503C19.7919 15.1541 19.7823 15.1589 19.7726 15.1636C19.763 15.1684 19.7534 15.1732 19.7438 15.177C17.9101 16.0606 16.3954 17.4965 15.4228 19.2675C15.4209 19.2694 15.4199 19.2723 15.419 19.2751C15.418 19.278 15.417 19.2808 15.4151 19.2827C15.3459 19.4122 15.2806 19.5417 15.2152 19.6712L15.2152 19.6712C15.2037 19.6941 15.1931 19.7179 15.1825 19.7417C15.172 19.7655 15.1614 19.7893 15.1499 19.8121C15.1037 19.9074 15.0614 20.0026 15.0191 20.0978C15.0076 20.1245 14.997 20.1511 14.9865 20.1778C14.9759 20.2044 14.9653 20.2311 14.9538 20.2578C14.941 20.2895 14.9277 20.3212 14.9145 20.353C14.888 20.4165 14.8615 20.4799 14.8385 20.5434C14.8327 20.5606 14.8269 20.5767 14.8212 20.5929C14.8154 20.6091 14.8096 20.6253 14.8039 20.6424C14.4387 21.6517 14.2387 22.741 14.2387 23.876C14.2387 24.3635 14.2772 24.8434 14.3464 25.3119C14.3483 25.3271 14.3512 25.3433 14.3541 25.3595C14.357 25.3757 14.3598 25.3919 14.3618 25.4071L14.3618 25.4072C14.381 25.5214 14.4002 25.6357 14.4233 25.7461C14.4348 25.8108 14.4502 25.8794 14.4656 25.9441C14.4784 26.0112 14.494 26.0755 14.51 26.1416C14.5131 26.1544 14.5163 26.1673 14.5194 26.1803C14.5329 26.2419 14.5502 26.3054 14.5673 26.3681C14.5746 26.3946 14.5817 26.4209 14.5886 26.4469C14.5973 26.4813 14.6072 26.5145 14.6169 26.5471C14.6244 26.5723 14.6319 26.5972 14.6386 26.6221C14.6557 26.6852 14.676 26.7467 14.6964 26.8086C14.708 26.844 14.7197 26.8794 14.7308 26.9154L14.7308 26.9154C14.7501 26.9725 14.7693 27.0296 14.7885 27.0829C14.8192 27.1705 14.85 27.2543 14.8846 27.3419C14.9 27.3781 14.9144 27.4143 14.9288 27.4505C14.9432 27.4867 14.9576 27.5228 14.973 27.559C14.9845 27.5876 14.997 27.6162 15.0095 27.6447C15.022 27.6733 15.0345 27.7019 15.0461 27.7304C15.0922 27.8371 15.1383 27.9399 15.1883 28.0427C15.1998 28.058 15.2075 28.0732 15.2152 28.0923C16.1071 29.9128 17.5602 31.4134 19.3517 32.377C19.4824 32.4494 19.6169 32.518 19.7515 32.5827C19.7899 32.603 19.8284 32.6199 19.8668 32.6369C19.8861 32.6453 19.9053 32.6538 19.9245 32.6627C20.0129 32.7046 20.0975 32.7427 20.1859 32.7808C20.255 32.8105 20.3265 32.838 20.3966 32.8649C20.4162 32.8724 20.4357 32.8799 20.455 32.8874C20.5127 32.9102 20.5703 32.9331 20.6319 32.956C20.7549 33.0017 20.8779 33.0436 21.0009 33.0816C21.0278 33.0931 21.0586 33.1045 21.0893 33.1121C21.2354 33.1578 21.3815 33.1997 21.5314 33.2378C21.5353 33.2397 21.5391 33.2407 21.543 33.2416C21.5468 33.2426 21.5506 33.2435 21.5545 33.2454C21.6813 33.2759 21.8121 33.3064 21.9389 33.333C21.9645 33.3362 21.9874 33.342 22.012 33.3482C22.017 33.3495 22.0221 33.3508 22.0273 33.3521C22.0658 33.3597 22.1052 33.3663 22.1446 33.373C22.184 33.3797 22.2234 33.3863 22.2618 33.394C22.3022 33.3997 22.3426 33.4073 22.3829 33.4149C22.4233 33.4225 22.4637 33.4301 22.504 33.4358C22.5732 33.4473 22.6424 33.4549 22.7115 33.4625L22.7116 33.4625C22.7437 33.4665 22.7753 33.4709 22.8068 33.4753C22.8659 33.4836 22.9244 33.4918 22.9846 33.4968C23.0263 33.5007 23.069 33.5036 23.1122 33.5066C23.1527 33.5094 23.1936 33.5121 23.2345 33.5158C23.3075 33.5234 23.3844 33.5311 23.4613 33.5349C23.5307 33.54 23.6019 33.5417 23.6737 33.5434C23.7091 33.5442 23.7447 33.545 23.7803 33.5463C23.8053 33.5463 23.8313 33.5473 23.8572 33.5482C23.8832 33.5492 23.9091 33.5501 23.9341 33.5501C24.0725 33.5501 24.2109 33.5463 24.3493 33.5425H24.3954C25.8063 33.4816 27.1864 33.1197 28.4358 32.4875C28.4388 32.486 28.4411 32.4851 28.4432 32.4844C28.4464 32.4831 28.4488 32.4822 28.4512 32.4799C28.5704 32.4227 28.6857 32.358 28.801 32.2932L28.9164 32.2247C28.9971 32.179 29.0778 32.1333 29.1547 32.0838C29.1912 32.0609 29.2277 32.0371 29.2643 32.0133C29.3008 31.9895 29.3373 31.9657 29.3738 31.9428C29.395 31.9295 29.4161 31.9152 29.4373 31.9009C29.4584 31.8867 29.4795 31.8724 29.5007 31.859C29.6045 31.7867 29.7083 31.7143 29.8121 31.6381C29.8159 31.6343 29.8207 31.6315 29.8255 31.6286C29.8303 31.6258 29.8351 31.6229 29.839 31.6191C30.9577 30.7888 31.8919 29.7224 32.5646 28.4998C32.5704 28.4884 32.5771 28.476 32.5838 28.4636C32.5906 28.4512 32.5973 28.4388 32.6031 28.4274C33.3373 27.0715 33.7525 25.5252 33.7525 23.8836H39ZM33.7371 18.6922H28.3781V24.0015H33.7371V18.6922Z" fill="white"/>
</mask>
<g mask="url(#mask1_21_1449)">
</g>
<defs>
<linearGradient id="paint0_linear_21_1449" x1="42.9762" y1="37.8433" x2="41.2033" y2="8.10392" gradientUnits="userSpaceOnUse">
<stop stop-color="#E7B84A"/>
<stop offset="0.449606" stop-color="#FFE8CE"/>
<stop offset="1" stop-color="#E7B84A"/>
</linearGradient>
</defs>
</svg>
