<svg width="29" height="24" viewBox="0 0 29 24" fill="none" xmlns="http://www.w3.org/2000/svg">
<path fill-rule="evenodd" clip-rule="evenodd" d="M28.5037 2.73893C27.4554 3.20679 26.3297 3.51886 25.1422 3.66534C26.3483 2.94162 27.279 1.78749 27.7151 0.424258C26.5833 1.09495 25.3309 1.58472 24.0011 1.84364C22.9371 0.705006 21.4189 0 19.7364 0C16.5078 0 13.8885 2.61727 13.8885 5.84598C13.8885 6.30145 13.941 6.74746 14.04 7.17803C9.18163 6.93466 4.87072 4.60445 1.9885 1.06687C1.48132 1.93098 1.1968 2.94162 1.1968 4.01177C1.1968 6.03936 2.22662 7.82687 3.79761 8.87811C2.83893 8.85012 1.93592 8.57858 1.14733 8.14821C1.14733 8.16693 1.14733 8.19182 1.14733 8.21672C1.14733 11.0524 3.16365 13.4139 5.83567 13.9537C5.34696 14.0878 4.83051 14.1627 4.29859 14.1627C3.92132 14.1627 3.5533 14.1189 3.19766 14.0535C3.93986 16.3713 6.09847 18.0652 8.65906 18.115C6.65505 19.681 4.1347 20.6201 1.39473 20.6201C0.921564 20.6201 0.457694 20.5919 0 20.5357C2.59152 22.1891 5.6655 23.1593 8.96519 23.1593C19.721 23.1593 25.6061 14.2499 25.6061 6.51972C25.6061 6.26709 25.5967 6.01447 25.5844 5.76801C26.7318 4.94759 27.7214 3.91817 28.5037 2.73893Z" fill="#CFCF47"/>
</svg>
